<svg width="66" height="61" viewBox="0 0 66 61" fill="none" xmlns="http://www.w3.org/2000/svg">
<path d="M32.8914 59.9997C50.5877 60.0902 65.0009 46.9561 65.0842 30.664C65.1675 14.3718 50.8894 1.09099 33.1931 1.0005C15.4969 0.910017 1.08368 14.0441 1.00037 30.3363C0.917064 46.6285 15.1952 59.9092 32.8914 59.9997ZM19.0145 32.2722C17.9085 32.2665 17.0161 31.4365 17.0213 30.4182C17.0265 29.3999 17.9274 28.5791 19.0334 28.5847L42.2353 28.7034L33.6787 20.7445C32.9003 20.0205 32.9063 18.8531 33.6921 18.137C34.4778 17.421 35.7458 17.4275 36.5242 18.1515L48.4833 29.2753C49.2617 29.9993 49.2558 31.1667 48.47 31.8828L36.3977 42.8837C35.612 43.5997 34.344 43.5932 33.5656 42.8692C32.7872 42.1452 32.7932 40.9778 33.5789 40.2618L42.2164 32.3908L19.0145 32.2722Z" fill="#F87E0D"/>
</svg>
