<svg width="65" height="59" viewBox="0 0 65 59" fill="none" xmlns="http://www.w3.org/2000/svg">
<path d="M32.0423 0C14.3458 0 0 13.2076 0 29.5C0 45.7924 14.3458 59 32.0423 59C49.7388 59 64.0847 45.7924 64.0847 29.5C64.0847 13.2076 49.7388 0 32.0423 0ZM46.0608 27.6562C47.1669 27.6562 48.0635 28.4817 48.0635 29.5C48.0635 30.5183 47.1669 31.3438 46.0608 31.3438H22.8586L31.4558 39.2588C32.2379 39.9788 32.2379 41.1462 31.4558 41.8662C30.6737 42.5863 29.4057 42.5863 28.6236 41.8662L16.6077 30.8037C15.8256 30.0837 15.8256 28.9163 16.6077 28.1963L28.6236 17.1338C29.4057 16.4137 30.6737 16.4137 31.4558 17.1338C32.2379 17.8538 32.2379 19.0212 31.4558 19.7412L22.8586 27.6562H46.0608Z" fill="#F46B08"/>
</svg>
