<svg width="45" height="45" viewBox="0 0 45 45" fill="none" xmlns="http://www.w3.org/2000/svg">
<path d="M15.1084 21.8065H6.34979C6.49919 13.0502 8.21728 11.6065 13.577 8.41897C14.1933 8.04397 14.3987 7.25649 14.0252 6.61899C13.6517 6.00024 12.8673 5.79401 12.2323 6.16901C5.92019 9.91901 3.71655 12.2065 3.71655 23.119V33.2252C3.71655 36.4315 6.31242 39.019 9.48717 39.019H15.0897C18.3765 39.019 20.8602 36.5252 20.8602 33.2252V27.6002C20.8788 24.3002 18.3951 21.8065 15.1084 21.8065Z" fill="#FFBC47"/>
<path opacity="0.4" d="M35.3145 21.8065H26.556C26.7054 13.0502 28.4236 11.6065 33.7833 8.41897C34.3996 8.04397 34.605 7.25649 34.2315 6.61899C33.858 6.00024 33.0736 5.79401 32.4386 6.16901C26.1265 9.91901 23.9229 12.2065 23.9229 23.119V33.2252C23.9229 36.4315 26.5187 39.019 29.6935 39.019H35.296C38.5828 39.019 41.0665 36.5252 41.0665 33.2252V27.6002C41.0851 24.3002 38.6013 21.8065 35.3145 21.8065Z" fill="#FFBC47"/>
</svg>
